<svg xmlns="http://www.w3.org/2000/svg" viewBox="0 0 1000 400">
  <path d="M284.6 206.9c-15.2 11.2-37.3 17.2-56.3 17.2-26.7 0-50.7-9.8-68.9-26.2-1.4-1.3-.1-3 1.6-2 20.1 11.7 44.9 18.7 70.5 18.7 17.3 0 36.3-3.6 53.7-11 2.6-1.1 4.8 1.7 2.3 3.3z" fill="#FF9900"/>
  <path d="M294.7 195.3c-1.9-2.5-12.9-1.2-17.9-.6-1.5.2-1.7-1.1-.4-2.1 8.8-6.2 23.2-4.4 24.9-2.3 1.7 2.1-0.4 16.6-8.7 23.5-1.3 1.1-2.5.5-1.9-0.9 1.9-4.6 6-15 4-17.6z" fill="#FF9900"/>
  <path d="M270.9 131.3v-6.5c0-1 .7-1.6 1.6-1.6h29c.9 0 1.7.7 1.7 1.6v5.5c0 .9-.8 2.1-2.2 4.1l-15 21.4c5.6-.1 11.5.7 16.5 3.5 1.1.6 1.4 1.6 1.5 2.5v6.9c0 1-1 2.1-2.1 1.5-8.9-4.7-20.8-5.2-30.6.1-1 .5-2.1-.5-2.1-1.5v-6.6c0-1 0-2.8 1.1-4.4l17.4-24.9h-15.1c-.9 0-1.7-.7-1.7-1.6zm-105.1 37.5h-8.8c-.8-.1-1.5-.7-1.6-1.5v-45.2c0-.9.8-1.6 1.7-1.6h8.2c.9 0 1.5.7 1.6 1.5v5.9h.2c2.1-5.7 6.2-8.4 11.6-8.4 5.5 0 9 2.7 11.4 8.4 2.1-5.7 7-8.4 12.2-8.4 3.7 0 7.7 1.5 10.2 5 2.8 3.8 2.2 9.3 2.2 14.2v28.6c0 .9-.8 1.6-1.7 1.6h-8.7c-.9-.1-1.6-.8-1.6-1.6v-24c0-1.9.2-6.7-.2-8.5-.7-3-2.6-3.9-5.2-3.9-2.1 0-4.4 1.4-5.3 3.7-0.9 2.3-.8 6.1-.8 8.7v24c0 .9-.8 1.6-1.7 1.6h-8.8c-.9-.1-1.6-.8-1.6-1.6v-24c0-5 .8-12.5-5.4-12.5-6.3 0-6.1 7.2-6.1 12.5v24c-.1.8-.8 1.5-1.8 1.5zm163.5-46.3c13.1 0 20.2 11.2 20.2 25.5 0 13.8-7.8 24.8-20.2 24.8-12.8 0-19.8-11.2-19.8-25.2-.1-14.1 7-25.1 19.8-25.1zm0 9.3c-6.5 0-6.9 8.9-6.9 14.4 0 5.5-.1 17.4 6.8 17.4 6.8 0 7.2-9.5 7.2-15.3 0-3.8-.2-8.4-1.3-12-1-3.2-2.9-4.5-5.8-4.5zm37.1 37h-8.8c-.9-.1-1.6-.8-1.6-1.6v-45.3c.1-.8.8-1.5 1.7-1.5h8.2c.8 0 1.4.6 1.6 1.3v6.9h.2c2.5-6.2 5.9-9.1 12-9.1 3.9 0 7.8 1.4 10.3 5.3 2.3 3.6 2.3 9.7 2.3 14.1v28.5c-.1.8-.8 1.4-1.7 1.4h-8.8c-.8-.1-1.5-.7-1.6-1.4v-24.6c0-5 .6-12.2-5.5-12.2-2.1 0-4.1 1.4-5.1 3.6-1.2 2.8-1.4 5.5-1.4 8.6v24.4c-.1.9-.9 1.6-1.8 1.6zm-117.5.1c-.6.5-1.4.6-2.1.2-2.9-2.4-3.5-3.5-5.1-5.8-4.8 4.9-8.3 6.4-14.5 6.4-7.4 0-13.2-4.6-13.2-13.7 0-7.2 3.9-12 9.4-14.4 4.8-2.1 11.5-2.5 16.6-3.1v-1.1c0-2.1.2-4.6-1.1-6.4-1.1-1.6-3.1-2.3-4.9-2.3-3.4 0-6.4 1.7-7.1 5.3-.2.8-.7 1.6-1.5 1.6l-8.5-.9c-.7-.2-1.5-.7-1.3-1.8 2-10.4 11.3-13.5 19.7-13.5 4.3 0 9.9 1.1 13.3 4.4 4.3 4 3.9 9.4 3.9 15.2v13.7c0 4.1 1.7 5.9 3.3 8.2.6.8.7 1.8 0 2.3-1.9 1.5-5.1 4.3-6.9 5.8zm-9-21.8c0 3.4.1 6.3-1.6 9.4-1.4 2.5-3.6 4-6 4-3.3 0-5.3-2.5-5.3-6.3 0-7.4 6.7-8.8 13-8.8v1.7h-.1zm-186.3 21.8c-.6.5-1.4.6-2.1.2-2.9-2.4-3.5-3.5-5.1-5.8-4.8 4.9-8.3 6.4-14.5 6.4-7.4 0-13.2-4.6-13.2-13.7 0-7.2 3.9-12 9.4-14.4 4.8-2.1 11.5-2.5 16.6-3.1v-1.1c0-2.1.2-4.6-1.1-6.4-1.1-1.6-3.1-2.3-4.9-2.3-3.4 0-6.4 1.7-7.1 5.3-.2.8-.7 1.6-1.5 1.6l-8.5-.9c-.7-.2-1.5-.7-1.3-1.8 2-10.4 11.3-13.5 19.7-13.5 4.3 0 9.9 1.1 13.3 4.4 4.3 4 3.9 9.4 3.9 15.2v13.7c0 4.1 1.7 5.9 3.3 8.2.6.8.7 1.8 0 2.3-1.9 1.5-5.1 4.3-6.9 5.8zm-9-21.8c0 3.4.1 6.3-1.6 9.4-1.4 2.5-3.6 4-6 4-3.3 0-5.3-2.5-5.3-6.3 0-7.4 6.7-8.8 13-8.8v1.7h-.1zm310.1 21.8c-.6.5-1.4.6-2.1.2-2.9-2.4-3.5-3.5-5.1-5.8-4.8 4.9-8.3 6.4-14.5 6.4-7.4 0-13.2-4.6-13.2-13.7 0-7.2 3.9-12 9.4-14.4 4.8-2.1 11.5-2.5 16.6-3.1v-1.1c0-2.1.2-4.6-1.1-6.4-1.1-1.6-3.1-2.3-4.9-2.3-3.4 0-6.4 1.7-7.1 5.3-.2.8-.7 1.6-1.5 1.6l-8.5-.9c-.7-.2-1.5-.7-1.3-1.8 2-10.4 11.3-13.5 19.7-13.5 4.3 0 9.9 1.1 13.3 4.4 4.3 4 3.9 9.4 3.9 15.2v13.7c0 4.1 1.7 5.9 3.3 8.2.6.8.7 1.8 0 2.3-1.9 1.5-5.1 4.3-6.9 5.8zm-9-21.8c0 3.4.1 6.3-1.6 9.4-1.4 2.5-3.6 4-6 4-3.3 0-5.3-2.5-5.3-6.3 0-7.4 6.7-8.8 13-8.8v1.7h-.1zm-251.3 21.7h-8.8c-.9-.1-1.6-.8-1.6-1.6v-45.3c.1-.8.8-1.5 1.7-1.5h8.2c.8 0 1.4.6 1.6 1.4v6.9h.2c2.5-6.2 5.9-9.1 12-9.1 3.9 0 7.8 1.4 10.3 5.3 2.3 3.6 2.3 9.7 2.3 14.1v28.5c-.1.8-.8 1.4-1.7 1.4h-8.8c-.8-.1-1.5-.7-1.6-1.4v-24.6c0-5 .6-12.2-5.5-12.2-2.1 0-4.1 1.4-5.1 3.6-1.2 2.8-1.4 5.5-1.4 8.6v24.4c-.1.8-.9 1.5-1.8 1.5z" fill="#221F1F"/>
  <path d="M482.8 263.9c-38.4 28.3-94.2 43.4-142.2 43.4-67.3 0-127.8-24.9-173.6-66.2-3.6-3.3-.4-7.7 3.9-5.2 49.1 28.6 109.8 45.8 172.5 45.8 42.3 0 88.7-8.7 131.5-26.8 6.4-2.8 11.8 4.2 7.9 9z" fill="#FF9900"/>
  <path d="M500.7 243.5c-4.9-6.3-32.5-3-44.9-1.5-3.8.5-4.4-2.8-1-5.2 22-15.5 58-11 62.2-5.8 4.2 5.3-1.1 41.8-22 59.3-3.2 2.7-6.2 1.3-4.8-2.3 4.7-11.5 15.1-37.5 10.5-44.5z" fill="#FF9900"/>
</svg>
