<svg xmlns="http://www.w3.org/2000/svg" viewBox="0 0 1000 400">
  <path d="M407.7 174.2c0 7.6-.7 14.8-2 21.9h-95.8v-41.5h54.8c-2.4-12.5-9.6-23.1-20.4-30.2v-25.1h33.1c19.4 17.9 30.3 44.2 30.3 74.9z" fill="#4285f4"/>
  <path d="M309.9 253.9c27.7 0 51-9.1 68-24.7l-33.1-25.7c-9.2 6.2-21 9.8-34.9 9.8-26.8 0-49.5-18.1-57.6-42.4h-34.2v26.6c16.9 33.6 51.8 56.4 91.8 56.4z" fill="#34a853"/>
  <path d="M252.3 170.9c-2.1-6.2-3.3-12.8-3.3-19.6s1.2-13.4 3.3-19.6v-26.6h-34.2c-6.9 13.8-10.9 29.4-10.9 46.2s3.9 32.4 10.9 46.2l34.2-26.6z" fill="#fbbc05"/>
  <path d="M309.9 108.9c15.1 0 28.7 5.2 39.4 15.4l29.4-29.4c-17.8-16.6-41-26.8-68.8-26.8-40 0-74.9 22.8-91.8 56.4l34.2 26.6c8.1-24.3 30.8-42.2 57.6-42.2z" fill="#ea4335"/>
</svg>
