<svg xmlns="http://www.w3.org/2000/svg" viewBox="0 0 1000 400">
  <path fill="#1F70C1" d="M0 0v27.4h194.2V0H0zm222.2 0v27.4h277.4c0 0-29.4-27.4-68.1-27.4H222.2zM0 55.4v27.4h194.2V55.4H0zm222.2 0v27.4h277.4c0 0-29.4-27.4-68.1-27.4H222.2zM0 110.8v27.4h194.2v-27.4H0zm222.2 0v27.4h204.8c0 0 4.4-27.4-34.3-27.4H222.2zM0 166.2v27.4h194.2v-27.4H0zm222.2 0v27.4h240.1c0 0-8.1-27.4-46.8-27.4H222.2zM0 221.6v27.4h194.2v-27.4H0zm222.2 0v27.4h195.4c0 0 13.8-27.4-24.9-27.4H222.2zM0 277v27.4h194.2V277H0zm222.2 0v27.4h277.4c0 0-29.4-27.4-68.1-27.4H222.2zM0 332.4v27.4h194.2v-27.4H0zm222.2 0v27.4h277.4c0 0-29.4-27.4-68.1-27.4H222.2z"/>
</svg>
